<svg xmlns="http://www.w3.org/2000/svg" xmlns:xlink="http://www.w3.org/1999/xlink" fill="gray" version="1.1" x="0px" y="0px" viewBox="0 0 24 30" style="enable-background:new 0 0 24 24;" xml:space="preserve"><g><path d="M20.5,4.5h-17C2.6713867,4.5,2,5.1713867,2,6s0.6713867,1.5,1.5,1.5h17C21.3286133,7.5,22,6.8286133,22,6   S21.3286133,4.5,20.5,4.5z"/><path d="M17.6665039,10.5H3.5C2.6713867,10.5,2,11.1713867,2,12s0.6713867,1.5,1.5,1.5h14.1665039   c0.8286133,0,1.5-0.6713867,1.5-1.5S18.4951172,10.5,17.6665039,10.5z"/><path d="M12,16.5H3.5C2.6713867,16.5,2,17.1713867,2,18s0.6713867,1.5,1.5,1.5H12c0.8286133,0,1.5-0.6713867,1.5-1.5   S12.8286133,16.5,12,16.5z"/></g></svg>